<svg xmlns="http://www.w3.org/2000/svg" viewBox="0 0 500 500"><g id="freepik--background-complete--inject-31"><rect y="382.4" width="500" height="0.25" style="fill:#ebebeb"></rect><rect x="363" y="398.49" width="86.9" height="0.25" style="fill:#ebebeb"></rect><rect x="357.66" y="389.21" width="8.69" height="0.25" style="fill:#ebebeb"></rect><rect x="322.53" y="401.21" width="19.19" height="0.25" style="fill:#ebebeb"></rect><rect x="52.46" y="390.89" width="21.6" height="0.25" style="fill:#ebebeb"></rect><rect x="82.96" y="390.89" width="27.93" height="0.25" style="fill:#ebebeb"></rect><rect x="207.67" y="394.99" width="46.84" height="0.25" style="fill:#ebebeb"></rect><path d="M237,337.8H43.91a5.71,5.71,0,0,1-5.7-5.71V60.66A5.71,5.71,0,0,1,43.91,55H237a5.71,5.71,0,0,1,5.71,5.71V332.09A5.71,5.71,0,0,1,237,337.8ZM43.91,55.2a5.46,5.46,0,0,0-5.45,5.46V332.09a5.46,5.46,0,0,0,5.45,5.46H237a5.47,5.47,0,0,0,5.46-5.46V60.66A5.47,5.47,0,0,0,237,55.2Z" style="fill:#ebebeb"></path><path d="M453.31,337.8H260.21a5.72,5.72,0,0,1-5.71-5.71V60.66A5.72,5.72,0,0,1,260.21,55h193.1A5.71,5.71,0,0,1,459,60.66V332.09A5.71,5.71,0,0,1,453.31,337.8ZM260.21,55.2a5.47,5.47,0,0,0-5.46,5.46V332.09a5.47,5.47,0,0,0,5.46,5.46h193.1a5.47,5.47,0,0,0,5.46-5.46V60.66a5.47,5.47,0,0,0-5.46-5.46Z" style="fill:#ebebeb"></path><path d="M173.67,271.08H260a15.18,15.18,0,0,1,15.18,15.18v77.55A15.18,15.18,0,0,1,260,379H173.67a0,0,0,0,1,0,0V271.08A0,0,0,0,1,173.67,271.08Z" transform="translate(448.85 650.07) rotate(180)" style="fill:#f0f0f0"></path><rect x="259.29" y="271.08" width="31.79" height="107.91" rx="15.18" transform="translate(550.37 650.07) rotate(180)" style="fill:#f5f5f5"></rect><rect x="161.68" y="310.88" width="101.95" height="68.11" style="fill:#f0f0f0"></rect><path d="M77.41,379H276a0,0,0,0,1,0,0v.29a3.11,3.11,0,0,1-3.11,3.11H80.53a3.11,3.11,0,0,1-3.11-3.11V379a0,0,0,0,1,0,0Z" style="fill:#e0e0e0"></path><path d="M178.91,231.74H84.8a19.08,19.08,0,0,0-19.31,21.17L72,326.28H208.43L202,252.91A23.59,23.59,0,0,0,178.91,231.74Z" style="fill:#e0e0e0"></path><path d="M200.14,231.74H104a18.15,18.15,0,0,0-18.38,20.15l6.58,74.39H228.64l-6.57-74.39A22.45,22.45,0,0,0,200.14,231.74Z" style="fill:#f5f5f5"></path><path d="M166.77,304.66H263.9a4.57,4.57,0,0,1,4.57,4.57v18.61a4.57,4.57,0,0,1-4.57,4.57H166.77a.26.26,0,0,1-.26-.26V304.92A.26.26,0,0,1,166.77,304.66Z" style="fill:#e0e0e0"></path><path d="M59.67,271.08H146a15.18,15.18,0,0,1,15.18,15.18v77.55A15.18,15.18,0,0,1,146,379H59.67a0,0,0,0,1,0,0V271.08a0,0,0,0,1,0,0Z" transform="translate(220.85 650.07) rotate(-180)" style="fill:#f0f0f0"></path><rect x="145.29" y="271.08" width="31.79" height="107.91" rx="15.18" transform="translate(322.37 650.07) rotate(180)" style="fill:#f5f5f5"></rect><rect x="412.81" y="255.36" width="26.99" height="127.04" style="fill:#e6e6e6"></rect><polygon points="434.67 382.4 439.8 382.4 439.8 360.29 429.3 360.29 434.67 382.4" style="fill:#f0f0f0"></polygon><rect x="311.94" y="255.36" width="26.99" height="127.04" style="fill:#e6e6e6"></rect><rect x="334.45" y="255.36" width="105.35" height="119.74" style="fill:#f0f0f0"></rect><rect x="398.58" y="252.92" width="27.52" height="46.98" transform="translate(135.93 688.74) rotate(-90)" style="fill:#e6e6e6"></rect><rect x="348.16" y="252.92" width="27.52" height="46.98" transform="translate(85.51 638.32) rotate(-90)" style="fill:#e6e6e6"></rect><path d="M366.57,266h-9.3a16.46,16.46,0,0,1-10.67-3.74h30.64A16.46,16.46,0,0,1,366.57,266Z" style="fill:#f0f0f0"></path><path d="M417.46,266h-9.3a16.46,16.46,0,0,1-10.67-3.74h30.64A16.46,16.46,0,0,1,417.46,266Z" style="fill:#f0f0f0"></path><rect x="398.58" y="288.32" width="27.52" height="46.98" transform="translate(100.53 724.15) rotate(-90)" style="fill:#e6e6e6"></rect><rect x="348.16" y="288.32" width="27.52" height="46.98" transform="translate(50.11 673.73) rotate(-90)" style="fill:#e6e6e6"></rect><path d="M366.57,301.38h-9.3a16.46,16.46,0,0,1-10.67-3.75h30.64A16.46,16.46,0,0,1,366.57,301.38Z" style="fill:#f0f0f0"></path><path d="M417.46,301.38h-9.3a16.46,16.46,0,0,1-10.67-3.75h30.64A16.46,16.46,0,0,1,417.46,301.38Z" style="fill:#f0f0f0"></path><rect x="398.58" y="323.73" width="27.52" height="46.98" transform="translate(65.12 759.55) rotate(-90)" style="fill:#e6e6e6"></rect><rect x="348.16" y="323.73" width="27.52" height="46.98" transform="translate(14.7 709.14) rotate(-90)" style="fill:#e6e6e6"></rect><path d="M366.57,336.78h-9.3A16.46,16.46,0,0,1,346.6,333h30.64A16.46,16.46,0,0,1,366.57,336.78Z" style="fill:#f0f0f0"></path><path d="M417.46,336.78h-9.3A16.46,16.46,0,0,1,397.49,333h30.64A16.46,16.46,0,0,1,417.46,336.78Z" style="fill:#f0f0f0"></path><polygon points="339.58 382.4 334.45 382.4 334.45 360.29 344.95 360.29 339.58 382.4" style="fill:#f0f0f0"></polygon><path d="M343.92,238.77s.43,16.59,16.66,16.59,16.66-16.59,16.66-16.59Z" style="fill:#e6e6e6"></path><path d="M394.58,240.83s.38,14.53,14.6,14.53,14.59-14.53,14.59-14.53Z" style="fill:#fafafa"></path><path d="M382.19,243.63s.3,11.73,11.78,11.73,11.77-11.73,11.77-11.73Z" style="fill:#f5f5f5"></path><path d="M343.92,226.31s.43,16.58,16.66,16.58,16.66-16.58,16.66-16.58Z" style="fill:#e6e6e6"></path><rect x="86.52" y="69.95" width="323.23" height="139.27" style="fill:#e6e6e6"></rect><rect x="90.6" y="69.95" width="325.8" height="139.27" style="fill:#f0f0f0"></rect><rect x="191.43" y="-16.58" width="124.15" height="312.34" transform="translate(393.09 -113.91) rotate(90)" style="fill:#fafafa"></rect><polygon points="135.67 201.66 175.17 77.51 226.95 77.51 187.45 201.66 135.67 201.66" style="fill:#fff"></polygon><polygon points="195.83 201.66 235.33 77.51 258.72 77.51 219.22 201.66 195.83 201.66" style="fill:#fff"></polygon><polygon points="288.62 201.66 328.12 77.51 368.06 77.51 328.56 201.66 288.62 201.66" style="fill:#fff"></polygon><rect x="347.17" y="139.16" width="124.15" height="0.85" transform="translate(548.83 -269.65) rotate(90)" style="fill:#e6e6e6"></rect><rect x="243.79" y="69.95" width="19.42" height="139.27" style="fill:#f0f0f0"></rect><rect x="181.29" y="139.16" width="124.15" height="0.85" transform="translate(382.95 -103.78) rotate(90)" style="fill:#e6e6e6"></rect><rect x="253.16" y="69.95" width="0.68" height="139.27" style="fill:#e6e6e6"></rect></g><g id="freepik--Shadow--inject-31"><ellipse id="freepik--path--inject-31" cx="250" cy="416.24" rx="193.89" ry="11.32" style="fill:#f5f5f5"></ellipse></g><g id="freepik--Bitcoin--inject-31"><path d="M222.63,191.56H200.55V416.24h22.08a112.34,112.34,0,1,0,0-224.68Z" style="fill:#FF4C29"></path><path d="M222.63,191.56H200.55V416.24h22.08a112.34,112.34,0,1,0,0-224.68Z" style="opacity:0.1"></path><path d="M149.52,201l-.45-.89a115,115,0,0,1,24.52-8.91l.23,1A114.35,114.35,0,0,0,149.52,201Z" style="fill:#FF4C29"></path><path d="M136.54,208.59l-.55-.83c2.15-1.44,4.37-2.84,6.6-4.13l.5.86C140.88,205.78,138.68,207.16,136.54,208.59Z" style="fill:#FF4C29"></path><circle cx="200.55" cy="303.9" r="112.34" transform="translate(-156.15 230.82) rotate(-45)" style="fill:#FF4C29"></circle><path d="M269.1,243.28A91.5,91.5,0,0,0,139.9,372.41,91.5,91.5,0,1,1,269.1,243.28Z" style="opacity:0.1"></path><path d="M244.94,312.09q-4.29-5.32-13.38-7.51a20.72,20.72,0,0,0,9.09-5.64,18.85,18.85,0,0,0,4.67-12.83,19.59,19.59,0,0,0-6.53-15q-6.54-6-18.73-6h-5V250.94H205.6v14.17H193.87V250.94h-9.45v14.17H163.87V282.2h7.39v50.17h-7.39v17.09h20.55v14.17h9.45V349.46H205.6v14.17h9.46V349.46h1.2a113.21,113.21,0,0,0,11.68-1.15q6.62-.85,9.9-2.76a22.46,22.46,0,0,0,8.34-8.28,23.08,23.08,0,0,0,3-11.8Q249.23,317.42,244.94,312.09ZM197.56,282.2h11.51q5.93,0,8.31,2.07a7.23,7.23,0,0,1,2.39,5.76,7.67,7.67,0,0,1-2.39,6.07q-2.38,2.1-8.49,2.1H197.56ZM220.34,329q-2.76,2.39-9.49,2.39H197.56V314.25h13.23q6.86,0,9.58,2.27a7.46,7.46,0,0,1,2.74,6A8,8,0,0,1,220.34,329Z" style="opacity:0.1"></path><path d="M241.78,312.09q-4.29-5.32-13.38-7.51a20.81,20.81,0,0,0,9.1-5.64,18.89,18.89,0,0,0,4.66-12.83,19.59,19.59,0,0,0-6.53-15q-6.54-6-18.73-6h-5V250.94h-9.45v14.17H190.71V250.94h-9.45v14.17H160.71V282.2h7.39v50.17h-7.39v17.09h20.55v14.17h9.45V349.46h11.74v14.17h9.45V349.46h1.2a113.21,113.21,0,0,0,11.68-1.15q6.61-.85,9.9-2.76a22.39,22.39,0,0,0,8.34-8.28,23.08,23.08,0,0,0,3-11.8Q246.07,317.42,241.78,312.09ZM194.4,282.2h11.51q5.93,0,8.31,2.07a7.23,7.23,0,0,1,2.39,5.76,7.67,7.67,0,0,1-2.39,6.07q-2.39,2.1-8.49,2.1H194.4ZM217.18,329q-2.76,2.39-9.49,2.39H194.4V314.25h13.23q6.85,0,9.58,2.27a7.43,7.43,0,0,1,2.74,6A8,8,0,0,1,217.18,329Z" style="fill:#fff"></path></g><g id="freepik--Character--inject-31"><ellipse cx="308.07" cy="133.28" rx="9.79" ry="9.64" style="fill:#263238"></ellipse><path d="M316.75,141.38A5.45,5.45,0,1,1,311.3,136,5.41,5.41,0,0,1,316.75,141.38Z" style="fill:#263238"></path><ellipse cx="321.53" cy="131.49" rx="9.79" ry="9.64" style="fill:#263238"></ellipse><polygon points="322.97 408.01 331 407.89 333.31 389.27 325.28 389.39 322.97 408.01" style="fill:#ff8b7b"></polygon><polygon points="371.85 407.58 379.11 403.34 373.29 386.17 366.04 390.41 371.85 407.58" style="fill:#ff8b7b"></polygon><path d="M379.89,402.77l-8.51,4.83a.68.68,0,0,0-.32.81l2.14,7a1.18,1.18,0,0,0,1.72.66c2.71-1.6,4.62-2.89,8.07-4.85,2.12-1.2,8.65-4.61,11.58-6.28s1.67-4.77.32-4.36c-6.05,1.88-11,2.56-13.62,2A2,2,0,0,0,379.89,402.77Z" style="fill:#263238"></path><path d="M331.16,407l-8.77.14a.69.69,0,0,0-.67.55l-1.47,7.16a1.16,1.16,0,0,0,1.17,1.41c3.16-.1,7.73-.36,11.7-.42,4.65-.07,8.67.12,14.12,0,3.29-.05,4.15-3.39,2.77-3.67-6.3-1.28-11.43-1.35-16.91-4.61A3.74,3.74,0,0,0,331.16,407Z" style="fill:#263238"></path><path d="M343.4,163.85c1.12,2.35,2.33,4.89,3.56,7.3s2.49,4.88,3.79,7.26A122.86,122.86,0,0,0,359.13,192l.57.79c.09.12.09.13.08.15a2.67,2.67,0,0,0-.79-.23c-.44-.05-.76.1-.72.14a1.39,1.39,0,0,0,.59-.25,12.53,12.53,0,0,0,2.26-2,33.15,33.15,0,0,0,2.36-2.87c1.57-2.06,3-4.34,4.47-6.66s2.83-4.74,4.16-7.09l5.62,2.19a78.23,78.23,0,0,1-6.45,16.52,43.61,43.61,0,0,1-2.52,4,20.94,20.94,0,0,1-3.66,4,12.16,12.16,0,0,1-3.06,1.87,9.19,9.19,0,0,1-4.87.64,9.41,9.41,0,0,1-4.53-2.1,13.92,13.92,0,0,1-1.39-1.36l-.74-.88a76.35,76.35,0,0,1-5.51-7.16c-1.71-2.43-3.25-4.93-4.75-7.44s-2.89-5.07-4.22-7.66-2.58-5.15-3.77-8Z" style="fill:#ff8b7b"></path><path d="M329,163.8c-2.16,7.36,13.08,27.43,13.08,27.43l15.36-9.88a97.81,97.81,0,0,0-10.65-18C340.45,155.28,331.33,155.72,329,163.8Z" style="fill:#FF4C29"></path><path d="M338.32,172.44c3.16,1.35,7.81,9,10.23,14.6L342,191.23a122.8,122.8,0,0,1-9.8-15.36C334.29,173.61,336.65,171.73,338.32,172.44Z" style="opacity:0.2"></path><path d="M372.19,177.09l-2-9.05,9.13-.07s2.44,6.8-2.46,10Z" style="fill:#ff8b7b"></path><polygon points="371.26 159.56 378.58 162.19 379.35 167.97 370.22 168.04 371.26 159.56" style="fill:#ff8b7b"></polygon><polygon points="333.31 389.27 332.12 398.87 324.08 399 325.28 389.4 333.31 389.27" style="opacity:0.2"></polygon><polygon points="366.04 390.41 373.3 386.18 376.29 395.03 369.03 399.26 366.04 390.41" style="opacity:0.2"></polygon><path d="M293.17,160.54c8.65,30.49,6.91,62.85,7.69,69.4,6.27-.45,29.92-2.22,42.81-3.18,4.11-45.87-5.62-69.16-5.62-69.16s-2.75-.53-6.5-.92c-1.17-.12-2.44-.22-3.76-.29-.73,0-1.47-.07-2.22-.08a160.25,160.25,0,0,0-18.2,1.35c-1.14.14-2.3.32-3.43.5s-2.06.37-3,.56C296.55,159.59,293.17,160.54,293.17,160.54Z" style="fill:#FF4C29"></path><polygon points="323.62 188.26 316.87 191.56 309.51 188.83 308.3 176.98 322.42 176.41 323.62 188.26" style="fill:#fff;opacity:0.1"></polygon><path d="M302.31,173.62c.77,2.95-.11,16.41-3.19,19.73-.42-4.31-1-8.81-1.72-13.41Z" style="opacity:0.2"></path><path d="M307.65,137c1.59,5.77,3.53,16.42-.28,20.63,3.42,2.93,7.85,6.27,14.83,6s5.4-5,3.37-7.35c-6.64-1.08-6.84-5.94-6-10.57Z" style="fill:#ff8b7b"></path><path d="M307.37,156.3s1.82,4.31,16.37,7.21c-2.41,1.77-3.51,6.1-3.51,6.1s-19-3.19-18.42-11.65C302.8,157.16,307.37,156.3,307.37,156.3Z" style="fill:#fff"></path><path d="M330,168a19.8,19.8,0,0,0-6.25-4.51,7.09,7.09,0,0,0,1.5-7.69,29.69,29.69,0,0,1,4.37.18S336.38,161.24,330,168Z" style="fill:#fff"></path><path d="M324.45,169.6c.13.88.62,1.53,1.1,1.46s.75-.84.62-1.72-.62-1.54-1.09-1.47S324.32,168.71,324.45,169.6Z" style="fill:#263238;opacity:0.4"></path><path d="M312.5,140.59l7,5.15a18.29,18.29,0,0,0-.32,3.27c-2.52-.18-6.15-2.66-6.61-5.25A8.7,8.7,0,0,1,312.5,140.59Z" style="opacity:0.2"></path><ellipse cx="315.76" cy="118.86" rx="11.14" ry="10.97" style="fill:#263238"></ellipse><path d="M326.16,120.27h0a.13.13,0,0,1-.08-.16,10.73,10.73,0,0,0-1.05-8.25,11.06,11.06,0,0,0-6.65-5.15.12.12,0,0,1,.06-.24,11.21,11.21,0,0,1,6.8,5.26,11,11,0,0,1,1.08,8.45A.14.14,0,0,1,326.16,120.27Z" style="fill:#263238"></path><ellipse cx="324.93" cy="123.8" rx="8.42" ry="8.29" style="fill:#263238"></ellipse><ellipse cx="305.62" cy="124.14" rx="9.79" ry="9.64" style="fill:#263238"></ellipse><path d="M306.3,128.27c1.08,7.89,1.31,12.57,5.61,16.34,6.48,5.67,16,1.31,17.3-6.74,1.18-7.25-.78-18.94-8.78-21.52A10.86,10.86,0,0,0,306.3,128.27Z" style="fill:#ff8b7b"></path><path d="M301.82,124.34c.82,11.1,25.34-4.43,20.12-10.35s-13.23-1.74-16.12.93C302.21,118.25,301.62,121.62,301.82,124.34Z" style="fill:#263238"></path><path d="M320.91,114.45c4.52-1.38,12.24,6.68,5.32,5.87S315.61,116.08,320.91,114.45Z" style="fill:#263238"></path><path d="M303.37,137.28a7.55,7.55,0,0,0,4.95,3c2.63.38,3.6-2.06,2.58-4.36-.91-2.07-3.39-4.76-5.89-4.08S301.93,135.29,303.37,137.28Z" style="fill:#ff8b7b"></path><path d="M335.1,397l-13.59.21s7.85-53.69,6.63-78.67c-.37-7.6.84-18.23-1.16-29.62-2.54-14.36-3.76-20.08-7-38.22-2.34-12.94-4.41-21.81-4.41-21.81l28.14-2.1s9.19,64.71,8.92,89.2C352.31,341.43,335.1,397,335.1,397Z" style="fill:#263238"></path><path d="M305.14,125.42c4.54,1.31,6.62,12.28,1.25,7.82S299.82,123.89,305.14,125.42Z" style="fill:#263238"></path><path d="M327,288.89a96.26,96.26,0,0,1,1.18,18c2.34,6.61,4.38,12.87,5.8,18.44,2.49,9.75,6.43,24.53,10.27,38.74,4.17-16.64,8.23-35.87,8.36-48.13Z" style="opacity:0.2"></path><path d="M328.49,227.89s20.22,51.1,27.88,73.33c8.4,24.35,21.95,90.08,21.95,90.08l-12.78,7.26s-19.93-54.19-28.18-77.91c-9.4-27-35.29-69.71-36.5-90.7Z" style="fill:#263238"></path><polygon points="380.01 390.71 364.95 399.25 362.4 394.75 379.07 384.92 380.01 390.71" style="fill:#FF4C29"></polygon><polygon points="336.81 397.26 320.62 397.51 320.54 392.28 338.63 391.72 336.81 397.26" style="fill:#FF4C29"></polygon><path d="M316.87,129.59c.05.65.43,1.15.85,1.11s.72-.58.68-1.22-.43-1.14-.85-1.11S316.82,129,316.87,129.59Z" style="fill:#263238"></path><path d="M325.79,129.05c0,.65.43,1.14.85,1.11s.73-.58.68-1.22-.43-1.15-.85-1.12S325.74,128.4,325.79,129.05Z" style="fill:#263238"></path><path d="M323.49,129.54a23.31,23.31,0,0,0,3.5,5.3,3.71,3.71,0,0,1-3,.8Z" style="fill:#ff5652"></path><path d="M321.35,137.57a5.28,5.28,0,0,1-3.8-1.84.19.19,0,1,1,.3-.23,5.14,5.14,0,0,0,4.32,1.69.18.18,0,0,1,.2.17.19.19,0,0,1-.17.21A6,6,0,0,1,321.35,137.57Z" style="fill:#263238"></path><path d="M315.51,127.4a.32.32,0,0,1-.18-.06.37.37,0,0,1-.11-.52,3.77,3.77,0,0,1,3-1.8.38.38,0,1,1,0,.76h0a3,3,0,0,0-2.33,1.45A.38.38,0,0,1,315.51,127.4Z" style="fill:#263238"></path><path d="M328.75,125.05a.35.35,0,0,1-.31-.19,3,3,0,0,0-2.27-1.55.37.37,0,0,1-.35-.4.38.38,0,0,1,.39-.36,3.79,3.79,0,0,1,2.89,1.93.39.39,0,0,1-.14.52A.33.33,0,0,1,328.75,125.05Z" style="fill:#263238"></path><path d="M382.89,402.68a9.23,9.23,0,0,1-2,.78.19.19,0,0,1-.2-.06.2.2,0,0,1,0-.21c.17-.3,1.64-3,2.63-3a.63.63,0,0,1,.55.31,1.13,1.13,0,0,1,.15,1.07A2.42,2.42,0,0,1,382.89,402.68Zm-1.62.28c1.32-.44,2.21-1,2.41-1.53a.76.76,0,0,0-.12-.73c-.08-.12-.15-.14-.21-.14C382.83,400.59,381.89,401.91,381.27,403Z" style="fill:#FF4C29"></path><path d="M381,403.45l-.1,0a.19.19,0,0,1-.16-.11c0-.09-1-2.2-.58-3.32a1,1,0,0,1,.58-.61h0a.62.62,0,0,1,.77.13c.59.7.06,3-.44,3.82A.16.16,0,0,1,381,403.45Zm-.19-3.63a.61.61,0,0,0-.3.36,4.49,4.49,0,0,0,.42,2.65c.41-.95.64-2.61.29-3,0,0-.1-.13-.33,0h0Z" style="fill:#FF4C29"></path><path d="M332,408.06a.2.2,0,0,1-.13-.16.17.17,0,0,1,.1-.19c.36-.2,3.56-1.88,4.54-1.36a.62.62,0,0,1,.32.51h0a1.06,1.06,0,0,1-.34.93c-.87.79-3.17.51-4.47.27Zm4.26-1.4c-.61-.2-2.34.49-3.61,1.12,1.78.27,3.1.17,3.59-.27a.69.69,0,0,0,.21-.62.2.2,0,0,0-.12-.2Z" style="fill:#FF4C29"></path><path d="M332,408.06l-.05,0a.17.17,0,0,1-.08-.17c0-.09.19-2.26,1.19-3.11a1.37,1.37,0,0,1,1.05-.34h0c.53,0,.68.3.72.52.16.9-1.73,2.67-2.69,3.12A.23.23,0,0,1,332,408.06Zm2.28-3.24-.2,0h0a1,1,0,0,0-.77.26,4.45,4.45,0,0,0-1,2.49c1-.61,2.26-2,2.17-2.54A.24.24,0,0,0,334.25,404.82Zm-.18-.22Z" style="fill:#FF4C29"></path><path d="M302,171c-2.26,4.66-4.54,9.45-6.75,14.19-1.11,2.38-2.21,4.75-3.25,7.13s-2.08,4.76-3.06,7.14c-.46,1.19-1,2.38-1.39,3.55l-.64,1.75a2.08,2.08,0,0,0-.19.48,2.55,2.55,0,0,0,.15,1.5,10.1,10.1,0,0,0,1.27,2.32c2.44,3.36,6.69,6.64,10.72,9.45L296.45,224a40.28,40.28,0,0,1-4.1-1.43,40.75,40.75,0,0,1-3.92-1.82,31.38,31.38,0,0,1-7.49-5.29,18.24,18.24,0,0,1-3.27-4.24A13.16,13.16,0,0,1,276,205a12.54,12.54,0,0,1,.44-3.46l.59-2.06c.38-1.37.82-2.67,1.24-4,1.78-5.25,3.78-10.32,5.93-15.31s4.46-9.84,7-14.72Z" style="fill:#ff8b7b"></path><path d="M293.18,160.54c-7.33,2.3-14.53,27.13-14.53,27.13l16.94,7.41s5.49-12,8.64-21.4C307.66,163.43,302.05,157.76,293.18,160.54Z" style="fill:#FF4C29"></path><path d="M296,217.84l8.12.8-3.3,9s-7.3-1.62-7.21-5.6Z" style="fill:#ff8b7b"></path><polygon points="311.12 222.68 306.83 230.12 300.76 227.68 304.07 218.64 311.12 222.68" style="fill:#ff8b7b"></polygon><path d="M317.51,133.53A5.53,5.53,0,1,1,323,128,5.54,5.54,0,0,1,317.51,133.53Zm0-10.56a5,5,0,1,0,5,5A5,5,0,0,0,317.51,123Z" style="fill:#fff"></path><path d="M329.53,133.53a5.53,5.53,0,1,1,5.53-5.53A5.54,5.54,0,0,1,329.53,133.53Zm0-10.56a5,5,0,1,0,5,5A5,5,0,0,0,329.53,123Z" style="fill:#fff"></path></g></svg>